<svg xmlns="http://www.w3.org/2000/svg" xmlns:xlink="http://www.w3.org/1999/xlink" version="1.1" x="0px" y="0px" viewBox="0 0 289.67 291.35" style="enable-background:new 0 0 289.67 291.35;" xml:space="preserve" width="289.67"  height="291.35" >
<style type="text/css">
	.st0{fill:#FFFFFF;}
	.st1{fill:#E31937;}
	.st2{fill:#0078AE;}
	.st3{fill:#E11B22;}
	.st4{display:none;}
	.st5{display:inline;}
	
		.st6{fill:none;stroke:#E8128C;stroke-width:1.5;stroke-miterlimit:10;stroke-dasharray:4.6183,4.6183,4.6183,4.6183,4.6183,4.6183;}
</style>
<g id="logo">
	<path class="st0" d="M282.37,86.66L205.2,9.49c-3.26-3.25-7.58-5.05-12.19-5.05c-4.6,0-8.94,1.8-12.19,5.05l-64.71,64.71   L8.4,181.92c-6.72,6.73-6.72,17.67,0,24.39l77.16,77.18c3.26,3.26,7.59,5.05,12.19,5.05c4.61,0,8.94-1.8,12.2-5.05l96.54-96.56   l75.88-75.88C289.09,104.33,289.09,93.38,282.37,86.66"/>
	<path class="st1" d="M209.05,114.45c-4.37,4.36-10.11,6.54-15.81,6.54c-5.71,0-11.44-2.18-15.81-6.54   c-4.36-4.36-6.55-10.09-6.55-15.8c0-5.72,2.2-11.46,6.55-15.81c4.37-4.36,10.09-6.56,15.81-6.56c5.7,0,11.44,2.18,15.81,6.56   c4.35,4.35,6.55,10.08,6.55,15.81C215.6,104.36,213.4,110.1,209.05,114.45 M276.91,92.15l-77.16-77.16   c-3.72-3.72-9.75-3.72-13.47,0l-83.43,83.43l90.63,90.64l83.43-83.43C280.64,101.9,280.64,95.87,276.91,92.15"/>
	<path class="st2" d="M114.67,178.89c4.36-4.37,10.09-6.55,15.8-6.55c5.72,0,11.44,2.18,15.8,6.55c4.38,4.36,6.56,10.07,6.56,15.8   c0,5.71-2.18,11.44-6.56,15.79c-4.35,4.35-10.08,6.54-15.8,6.55c-5.72,0-11.44-2.2-15.8-6.55c-4.37-4.36-6.55-10.09-6.55-15.79   C108.12,188.98,110.3,183.25,114.67,178.89 M80.68,209.6c-4.37,4.34-10.1,6.53-15.81,6.53c-5.72,0-11.44-2.18-15.81-6.53   c-4.37-4.36-6.54-10.09-6.54-15.8c0-5.72,2.18-11.45,6.54-15.82c4.37-4.36,10.09-6.53,15.81-6.54c5.71,0,11.45,2.18,15.81,6.54   c4.36,4.37,6.54,10.1,6.53,15.81C87.21,199.51,85.04,205.25,80.68,209.6 M13.86,187.37c-3.72,3.72-3.72,9.76,0,13.48l77.17,77.18   c1.86,1.86,4.3,2.79,6.74,2.79c2.44,0,4.88-0.93,6.74-2.79l83.39-83.4l-90.63-90.64L13.86,187.37z"/>
	<g>
		<path class="st3" d="M223.53,250.36l11.96-12.35l0.09,7.16c0.01,1.28,1.21,0.66,1.21,0.66l9.13-3.09l-3.03,9.29    c-0.36,0.97,0.49,1.14,0.49,1.14l6.13,1.58l-17.93,13.2c-0.46,0.47-0.11,0.94-0.11,0.94l2.83,4.78l-19.66-2.45l-21.84,2.82    l2.78-4.93c0.46-0.87-0.36-1.28-0.36-1.28l-17.97-12.63l5.73-1.55c1.4-0.48,0.69-1.64,0.69-1.64l-2.97-8.87l9.64,3.1    c1.28,0.29,1.02-0.98,1.02-0.98l-0.17-6.86l12.23,12.2c0.7,0.23,0.47-0.47,0.47-0.47l-4.94-23.7l8.67,3.92    c1.64,0.46,1.75-1.06,1.75-1.06l3.66-12.41l4.17,12.48c0.48,1.75,1.64,1.04,1.64,1.04l8.63-4.14"/>
		<polygon class="st3" points="215.91,288.52 213.25,288.53 213.6,268.77 215.32,268.77   "/>
	</g>
	<g>
		<path class="st2" d="M137.73,286.92c-4.23,0-7.66-3.43-7.66-7.66c0-4.27,3.43-7.66,7.66-7.66c4.27,0,7.66,3.4,7.66,7.66    C145.39,283.49,142,286.92,137.73,286.92z M137.73,272.74c-3.61,0-6.51,2.86-6.51,6.51c0,3.58,2.89,6.51,6.51,6.51    c3.61,0,6.5-2.93,6.5-6.51C144.23,275.6,141.34,272.74,137.73,272.74z M139.82,283.66l-2.27-3.47h-1.52v3.47h-1.23v-8.78h3.58    c1.48,0,2.85,1.05,2.85,2.68c0,1.95-1.74,2.6-2.24,2.6l2.35,3.5H139.82z M138.38,275.96h-2.35v3.11h2.35    c0.76,0,1.58-0.61,1.58-1.52C139.97,276.58,139.14,275.96,138.38,275.96z"/>
	</g>
</g>
<g id="guide" class="st4">
	<g class="st5">
		
			<ellipse transform="matrix(0.1891 -0.982 0.982 0.1891 -109.2827 341.9172)" class="st6" cx="152.38" cy="237.13" rx="17.65" ry="17.65"/>
	</g>
	<g class="st5">
		
			<ellipse transform="matrix(0.8507 -0.5257 0.5257 0.8507 15.4289 98.7572)" class="st6" cx="181.53" cy="22.22" rx="17.65" ry="17.65"/>
	</g>
	<g class="st5">
		
			<ellipse transform="matrix(0.5257 -0.8507 0.8507 0.5257 34.9158 279.9655)" class="st6" cx="268.53" cy="108.67" rx="17.65" ry="17.65"/>
	</g>
	<g class="st5">
		
			<ellipse transform="matrix(0.2298 -0.9732 0.9732 0.2298 -162.0978 161.7517)" class="st6" cx="21.14" cy="183.29" rx="17.65" ry="17.65"/>
	</g>
	<g class="st5">
		
			<ellipse transform="matrix(0.8507 -0.5257 0.5257 0.8507 -126.1154 96.8898)" class="st6" cx="107.48" cy="270.42" rx="17.65" ry="17.65"/>
	</g>
</g>
</svg>