<svg xmlns="http://www.w3.org/2000/svg" xmlns:xlink="http://www.w3.org/1999/xlink" version="1.1" id="Layer_1" x="0px" y="0px" viewBox="0 0 215 50" style="enable-background:new 0 0 215 50;" xml:space="preserve" width="215"  height="50" >
<style type="text/css">
	.st0{clip-path:url(#SVGID_2_);fill:#A50606;}
	.st1{clip-path:url(#SVGID_2_);fill:#989898;}
</style>
<g>
	<defs>
		<rect id="SVGID_1_" x="0.94" y="-0.11" width="213.47" height="50"/>
	</defs>
	<clipPath id="SVGID_2_">
		<use xlink:href="#SVGID_1_" style="overflow:visible;"/>
	</clipPath>
	<path class="st0" d="M34.59,3.9c0-0.5-0.4-0.75-1.19-0.75h-7.1c-0.33,0-0.61,0.03-0.84,0.09c-0.23,0.06-0.43,0.2-0.59,0.41   L9.6,24.15V4.33C9.6,4,9.48,3.72,9.23,3.49C8.98,3.27,8.69,3.15,8.35,3.15H2.18c-0.33,0-0.62,0.11-0.87,0.34S0.94,4,0.94,4.33   v43.81c0,0.33,0.13,0.62,0.37,0.87s0.54,0.37,0.87,0.37h6.17c0.33,0,0.62-0.12,0.87-0.37c0.25-0.25,0.37-0.54,0.37-0.87V27.45   l14.27,21.25c0.29,0.46,0.77,0.68,1.43,0.68h8.35c0.62,0,0.94-0.19,0.94-0.56c0-0.17-0.1-0.41-0.31-0.75L18.2,25.52L34.15,4.89   C34.44,4.52,34.59,4.19,34.59,3.9"/>
	<path class="st0" d="M54.05,41.6c-0.92,0.5-1.93,0.91-3.04,1.25c-1.11,0.33-2.23,0.5-3.35,0.5c-1.59,0-2.74-0.26-3.45-0.78   c-0.71-0.52-1.06-1.55-1.06-3.09v-0.25c0-0.87,0.09-1.64,0.28-2.3c0.19-0.67,0.54-1.22,1.07-1.65c0.52-0.44,1.23-0.77,2.13-1   c0.9-0.23,2.06-0.34,3.48-0.34h3.95V41.6z M58.75,16.73c-2.35-1.95-5.74-2.93-10.19-2.93c-2.16,0-4.12,0.1-5.89,0.31   c-1.77,0.21-3.27,0.43-4.52,0.68c-0.79,0.16-1.18,0.6-1.18,1.3v3.95c0,0.45,0.1,0.74,0.31,0.87s0.48,0.19,0.81,0.19h0.31   c1.04-0.12,2.49-0.24,4.36-0.34s3.8-0.16,5.8-0.16c1.87,0,3.25,0.34,4.14,1.01c0.89,0.67,1.34,2.03,1.34,4.08v2.76h-3.93   c-5.4,0-9.29,0.91-11.65,2.71c-2.37,1.81-3.55,4.5-3.55,8.07v0.25c0,2.12,0.32,3.84,0.97,5.17c0.64,1.33,1.47,2.39,2.49,3.18   c1.02,0.79,2.17,1.33,3.46,1.62c1.29,0.29,2.58,0.44,3.86,0.44c1.5,0,2.97-0.24,4.42-0.72c1.45-0.48,1.82-0.61,2.82-1.25   c3.16-1.87,2.22,1.48,4.55,1.48c0.08,0,3.45,0,3.53-0.01c1.12,0,1.25-0.77,1.25-1.25V25.71C62.27,21.68,61.1,18.69,58.75,16.73"/>
	<path class="st0" d="M82.62,13.81c-1.25,0-2.68,0.12-4.24,0.59c-0.69,0.21-1.78,0.61-3.13,1.62c-2.99,2.23-2.3-1.77-4.61-1.77   l-3.65-0.01c-0.84,0.02-1.2,0.5-1.2,1.25v32.59c0,0.33,0.12,0.63,0.38,0.9c0.25,0.27,0.54,0.4,0.87,0.4h5.73   c0.33,0,0.62-0.13,0.87-0.4c0.25-0.27,0.38-0.57,0.38-0.9V23.03c1.33-0.71,2.67-1.26,4.02-1.65c1.35-0.39,2.88-0.59,4.58-0.59   c0.33,0,0.62-0.12,0.87-0.37c0.25-0.25,0.37-0.54,0.37-0.87v-4.49c0-0.33-0.12-0.62-0.37-0.87C83.24,13.93,82.95,13.81,82.62,13.81   "/>
	<path class="st0" d="M105.05,42.66c-0.58,0.12-1.44,0.23-2.59,0.31c-1.14,0.08-2.28,0.12-3.4,0.12c-1.33,0-2.43-0.23-3.3-0.68   c-0.87-0.46-1.56-1.08-2.06-1.86c-0.5-0.79-0.84-1.72-1.03-2.79c-0.19-1.07-0.28-2.25-0.28-3.53v-4.77c0-1.28,0.09-2.46,0.28-3.53   c0.19-1.08,0.53-2,1.03-2.79c0.5-0.78,1.19-1.41,2.06-1.86c0.87-0.45,1.97-0.68,3.3-0.68c0.75,0,1.71,0.04,2.9,0.12   c1.18,0.08,2.21,0.19,3.08,0.31V42.66z M112.03,1.97h-5.73c-0.33,0-0.62,0.12-0.87,0.37s-0.37,0.54-0.37,0.87v11.03   c-1.16-0.17-2.26-0.28-3.3-0.34c-1.04-0.06-1.93-0.09-2.68-0.09c-5.03,0-8.77,1.38-11.22,4.14c-2.45,2.76-3.68,6.6-3.68,11.5v4.8   c0,4.9,1.22,8.74,3.68,11.5c2.45,2.76,6.19,4.14,11.22,4.14c1.99,0,4.09-0.15,6.29-0.44c2.2-0.29,4.28-0.69,6.23-1.18   c0.71-0.21,1.16-0.43,1.37-0.65c0.21-0.23,0.31-0.57,0.31-1.03V3.21c0-0.33-0.12-0.62-0.37-0.87   C112.66,2.09,112.36,1.97,112.03,1.97"/>
	<path class="st0" d="M124.39,14.24h-5.73c-0.33,0-0.62,0.12-0.87,0.37c-0.25,0.25-0.37,0.54-0.37,0.87v32.59   c0,0.33,0.12,0.63,0.37,0.9c0.25,0.27,0.54,0.4,0.87,0.4h5.73c0.33,0,0.62-0.13,0.87-0.4c0.25-0.27,0.37-0.57,0.37-0.9V15.49   c0-0.33-0.12-0.62-0.37-0.87C125.01,14.37,124.72,14.24,124.39,14.24"/>
	<path class="st0" d="M156.88,14.24h-5.73c-0.33,0-0.62,0.14-0.87,0.41c-0.25,0.27-0.37,0.57-0.37,0.9v24.98   c-0.42,0.25-0.92,0.52-1.5,0.81c-0.58,0.29-1.18,0.56-1.81,0.81c-0.62,0.25-1.26,0.46-1.9,0.63c-0.64,0.17-1.26,0.25-1.84,0.25   c-0.96,0-1.72-0.09-2.31-0.28c-0.58-0.19-1.1-0.47-1.56-0.84c-0.58-0.54-0.97-1.28-1.15-2.22c-0.19-0.94-0.28-2.2-0.28-3.78V15.55   c0-0.33-0.12-0.63-0.37-0.9c-0.25-0.27-0.54-0.41-0.87-0.41h-5.73c-0.33,0-0.62,0.14-0.87,0.4c-0.25,0.27-0.37,0.57-0.37,0.9v20.32   c0,2.62,0.23,4.87,0.69,6.76c0.46,1.89,1.27,3.42,2.43,4.58c0.91,0.91,2.02,1.58,3.33,1.99c1.31,0.42,2.75,0.62,4.33,0.62   c1.99,0,3.73-0.21,5.17-0.74c0.97-0.35,1.24-0.47,3.05-1.57c3.43-2.06,2.5,1.88,5.01,1.88c0.02,0,3.57,0,3.59,0   c0.54-0.01,1.19-0.21,1.19-1.24V15.55c0-0.33-0.12-0.63-0.37-0.9C157.5,14.38,157.21,14.24,156.88,14.24"/>
	<path class="st0" d="M206.38,21.78c-0.29-1.58-0.81-2.96-1.56-4.14c-0.75-1.18-1.8-2.12-3.15-2.8c-1.35-0.69-3.08-1.03-5.2-1.03   c-2.16,0-4.02,0.25-5.58,0.75c-1.56,0.5-3.13,1.18-4.71,2.06c-0.71-0.87-1.65-1.56-2.84-2.06c-1.18-0.5-2.59-0.74-4.46-0.75   c-4.01-0.02-5.82,1.15-7.36,2.2c-0.62,0.42-1.62,1.03-2.13,0.45l-0.85-1.15c-0.34-0.57-0.89-1.06-1.66-1.06l-3.62,0   c-0.69,0.01-1.21,0.27-1.21,1.25v32.59c0,0.33,0.12,0.63,0.37,0.9c0.25,0.27,0.54,0.4,0.87,0.4h5.73c0.33,0,0.62-0.13,0.87-0.4   c0.25-0.27,0.37-0.57,0.37-0.9V22.96c2.58-1.37,4.49-2.05,5.73-2.05c0.87,0,1.59,0.09,2.15,0.28c0.56,0.19,1,0.51,1.31,0.96   c0.31,0.46,0.53,1.07,0.65,1.83c0.12,0.77,0.19,1.75,0.19,2.95v21.14c0,0.33,0.12,0.63,0.37,0.9c0.25,0.27,0.54,0.4,0.87,0.4h5.73   c0.33,0,0.62-0.13,0.87-0.4c0.25-0.27,0.37-0.57,0.37-0.9V26.94c0-0.79-0.02-1.55-0.06-2.3c-0.04-0.75-0.1-1.47-0.19-2.18   c1.12-0.58,2.22-0.99,3.3-1.21c1.08-0.23,1.91-0.34,2.49-0.34c0.87,0,1.6,0.09,2.18,0.28c0.58,0.19,1.04,0.51,1.37,0.96   c0.33,0.46,0.57,1.07,0.72,1.83c0.15,0.77,0.22,1.75,0.22,2.95v21.14c0,0.33,0.12,0.63,0.37,0.9c0.25,0.27,0.54,0.4,0.87,0.4h5.73   c0.33,0,0.62-0.13,0.87-0.4c0.25-0.27,0.37-0.57,0.37-0.9V26.89C206.81,25.07,206.67,23.36,206.38,21.78"/>
	<path class="st0" d="M121.58,2.06c-2.39,0-4.33,1.94-4.33,4.32c0,2.39,1.94,4.33,4.33,4.33c2.39,0,4.32-1.94,4.32-4.33   C125.91,4,123.97,2.06,121.58,2.06"/>
	<path class="st1" d="M169.46,12.04l-4.59-8.42l-3.46,5.88c-0.23,0.39-0.64,0.62-1.09,0.62l-29.88,0c-0.7,0-1.27-0.57-1.27-1.27   c0-0.7,0.57-1.26,1.27-1.26l29.16,0l4.17-7.08c0.23-0.38,0.64-0.62,1.08-0.62h0.01c0.44,0,0.85,0.23,1.08,0.61l4.78,8.75l0.87-1   c0.24-0.28,0.59-0.44,0.96-0.44l33,0c0.7,0,1.27,0.57,1.27,1.26c0,0.7-0.57,1.27-1.27,1.27l-32.42,0l-1.63,1.88   C170.95,12.85,169.85,12.74,169.46,12.04"/>
	<path class="st1" d="M214.04,9.02h-0.37c0,0.61-0.25,1.17-0.65,1.57c-0.4,0.4-0.96,0.65-1.57,0.65c-0.61,0-1.17-0.25-1.57-0.65   c-0.4-0.4-0.65-0.96-0.65-1.57c0-0.61,0.25-1.17,0.65-1.57c0.4-0.4,0.96-0.65,1.57-0.65c0.61,0,1.17,0.25,1.57,0.65   c0.4,0.4,0.65,0.95,0.65,1.57H214.04h0.36c0-1.63-1.32-2.95-2.95-2.95c-1.63,0-2.95,1.32-2.95,2.95c0,1.63,1.32,2.95,2.95,2.95   c1.63,0,2.95-1.32,2.95-2.95H214.04z"/>
	<path class="st1" d="M211.92,8.23c0-0.11-0.03-0.2-0.07-0.27c-0.05-0.07-0.13-0.12-0.24-0.16c-0.03-0.01-0.07-0.01-0.11-0.02   c-0.04,0-0.1-0.01-0.18-0.01h-0.29V8.7h0.33c0.09,0,0.18-0.01,0.24-0.03c0.07-0.02,0.13-0.05,0.17-0.09   c0.05-0.04,0.08-0.09,0.1-0.15C211.91,8.37,211.92,8.3,211.92,8.23 M212.76,10.42c0,0.02,0,0.03-0.01,0.05   c-0.01,0.01-0.02,0.02-0.05,0.03c-0.02,0.01-0.06,0.01-0.11,0.02c-0.05,0-0.11,0.01-0.2,0.01c-0.07,0-0.12,0-0.17-0.01   c-0.04,0-0.07-0.01-0.1-0.02c-0.02-0.01-0.04-0.02-0.05-0.03c-0.01-0.01-0.02-0.03-0.02-0.05l-0.29-0.72   c-0.04-0.08-0.07-0.15-0.1-0.22c-0.03-0.06-0.07-0.12-0.11-0.16c-0.04-0.04-0.09-0.07-0.14-0.1c-0.05-0.02-0.11-0.03-0.18-0.03   h-0.21v1.23c0,0.02-0.01,0.03-0.02,0.04s-0.03,0.02-0.05,0.03c-0.02,0.01-0.06,0.01-0.1,0.02c-0.04,0-0.1,0.01-0.16,0.01   c-0.06,0-0.12,0-0.16-0.01c-0.04-0.01-0.08-0.01-0.1-0.02c-0.03-0.01-0.04-0.02-0.05-0.03c-0.01-0.01-0.01-0.03-0.01-0.04V7.49   c0-0.07,0.02-0.13,0.06-0.16c0.04-0.03,0.08-0.05,0.14-0.05h0.83c0.09,0,0.15,0,0.21,0.01c0.05,0,0.1,0.01,0.15,0.01   c0.13,0.02,0.25,0.05,0.35,0.09c0.1,0.05,0.19,0.1,0.26,0.18c0.07,0.07,0.13,0.16,0.17,0.26c0.04,0.1,0.06,0.21,0.06,0.34   c0,0.11-0.01,0.21-0.04,0.3s-0.07,0.17-0.12,0.24c-0.05,0.07-0.12,0.13-0.2,0.18c-0.08,0.05-0.17,0.09-0.27,0.12   c0.05,0.02,0.09,0.05,0.14,0.08c0.04,0.03,0.08,0.07,0.12,0.12c0.04,0.05,0.07,0.1,0.11,0.16c0.03,0.06,0.07,0.13,0.1,0.2   l0.27,0.64c0.03,0.06,0.04,0.11,0.05,0.14C212.76,10.38,212.76,10.4,212.76,10.42"/>
</g>
</svg>