<svg xmlns:xlink="http://www.w3.org/1999/xlink" width="853" height="168" viewBox="0 0 853 168" fill="none" xmlns="http://www.w3.org/2000/svg" class="ml-4 h-5 w-auto"><g clip-path="url(#clip0_1848_799)" fill="none"><path d="M39.2484 27.7964C38.9849 27.8555 38.9634 27.6029 39.1247 27.5115C44.3023 24.4845 51.6734 23.764 52.2219 23.3501C52.7165 22.6565 48.8508 22.6941 47.5067 22.6995C37.7268 23.0382 29.2857 26.6781 22.2748 33.2912C11.5111 42.4635 7.98408 57.5553 9.47337 71.1255C11.2154 85.1582 18.9252 98.3413 30.3718 106.632C54.2273 122.67 87.911 115.008 105.761 93.1799C127.74 66.534 121.181 28.5975 98.2016 11.2583C92.2391 7.11842 85.7228 3.84952 78.6903 1.9785C75.4107 1.00535 70.846 0.0698446 68.7492 -4.97611e-05C65.534 -0.102203 66.604 2.54303 66.0341 3.19359C65.4641 3.84414 59.5769 4.10759 66.2384 6.44636C70.1793 7.82812 67.7814 7.90877 64.776 10.6293C62.1146 13.0379 64.4372 15.7369 63.5179 16.6832C59.5715 20.7478 65.6147 22.5328 68.7331 24.3071C83.841 32.3718 92.1638 46.8883 89.411 63.9802C85.5453 86.5615 51.9154 96.3144 37.0333 78.4591C25.5867 64.9211 29.9148 42.3828 46.2109 35.0332C48.4691 33.9417 53.566 32.3503 51.3777 32.5331C42.942 33.2374 36.3558 37.7268 34.2267 39.3559C34.0439 39.4957 33.802 39.2806 33.9149 39.0817C35.458 36.3665 44.3991 30.033 61.9909 27.8072C65.1362 27.1297 53.3025 24.6512 39.2484 27.7964Z" fill="#FFFF"></path><path d="M46.4572 163.574C47.4142 163.563 48.3659 163.703 49.2584 163.795C51.5541 163.864 54.1349 163.601 56.6564 163.929C62.1404 164.241 67.6675 165.472 73.1676 165.606C76.9581 165.886 80.5764 165.714 84.4475 165.859C87.3669 166.235 90.8348 166.004 93.4531 166.397C95.0876 166.585 96.5876 166.504 98.2275 166.746C102.566 167.365 106.889 167.456 111.282 167.397C112.954 167.451 114.669 167.483 116.335 167.375C118.115 167.273 120.056 167.348 121.486 166.209C122.336 165.709 122.293 164.692 122.47 163.993C122.69 163.612 123.153 163.407 123.357 163.02C123.583 162.354 123.728 161.66 123.739 160.977V160.934C123.787 158.612 122.674 156.327 121.825 154.171C120.411 151.047 118.75 148.127 116.954 145.203C114.948 142.369 113.943 138.504 110.534 136.971C104.389 134.278 98.0715 134.563 91.2703 133.74C78.4688 132.605 64.8717 131.772 52.9735 131.611C41.8711 131.772 22.2576 132.498 12.1606 133.396C-5.77538 134.993 2.57431 137.837 2.00978 142.869C1.80547 144.724 -0.221468 144.574 0.00434428 146.391C0.380699 149.025 5.32169 152.321 7.80563 152.988C18.7468 155.913 4.23027 156.348 5.85397 159.273C7.20347 161.708 13.2251 161.009 15.6822 161.977L46.4465 163.574H46.4572Z" fill="#FFFF"></path><path d="M217.726 27.1834L218.591 27.3554C227.231 29.0813 229.339 31.2802 229.339 38.56V128.885C229.339 136.165 227.231 138.358 218.591 140.09L217.726 140.262V149.746H262.673V140.262L261.808 140.09C253.442 138.418 251.275 136.068 251.275 128.67V38.56C251.275 31.248 253.345 29.049 261.808 27.3554L262.673 27.1834V17.6992H217.726V27.1834Z" fill="#FFFF"></path><path d="M370.698 129.525V86.943C370.698 62.7542 359.412 48.8774 339.729 48.8774C325.04 48.8774 313.895 55.3991 304.889 62.1843V50.3829L303.986 50.77C297.884 53.3722 291.507 55.2862 284.98 56.469L272.851 58.6734V67.8457L273.738 68.0016C280.706 69.2328 283.819 71.0178 283.819 78.3406V129.525C283.819 136.627 280.83 138.455 273.684 140.09L272.851 140.283V149.74H316.293V140.24L315.411 140.079C308.868 138.891 305.755 136.977 305.755 129.31V71.4748C313.266 67.7059 320.938 65.8672 329.196 65.8672C342.88 65.8672 348.982 73.2975 348.982 89.9538V129.31C348.982 136.944 345.799 138.864 339.111 140.079L338.229 140.24V149.74H381.671V140.283L380.838 140.09C373.692 138.455 370.708 136.627 370.708 129.525H370.698Z" fill="#FFF"></path><path d="M536.59 60.0067V50.3882H501.75V60.1734L502.713 60.2756C506.584 60.6949 509.036 61.7595 510.208 63.5337C511.272 65.1413 511.331 67.4209 510.401 70.507L492.906 128.283L468.341 51.6785H453.013L427.829 128.277L410.743 70.0984C409.893 67.0822 409.92 65.0284 410.823 63.6305C411.888 61.9799 414.388 60.9154 418.684 60.2702L419.598 60.1304V50.3882H376.801V59.9261L377.467 60.2003C383.376 62.6466 384.876 64.894 386.968 71.3834L413.882 149.746H434.13L456.583 84.0504L478.825 149.746H499.293L525.778 71.3726C527.977 64.7703 530.697 61.7541 535.816 60.2379L536.585 60.0121L536.59 60.0067Z" fill="#FFFF"></path><path d="M582.59 48.8823C569.348 48.8823 557.337 53.99 548.761 63.2591C539.938 72.797 535.277 85.8242 535.277 100.927C535.277 116.029 539.809 128.186 548.39 137.336C556.804 146.31 568.799 151.251 582.16 151.251C595.52 151.251 608.139 146.068 616.924 136.664C625.709 127.261 630.548 114.035 630.548 99.4267C630.548 70.141 610.381 48.8877 582.59 48.8877V48.8823ZM587.655 140.6C572.848 142.218 561.476 126.696 558.675 101.061C557.423 89.5985 558.487 79.6574 561.756 72.3077C565.063 64.8666 570.52 60.5278 577.531 59.7643C592.467 58.1353 603.902 73.4636 606.677 98.8245C608.747 117.793 604.838 138.729 587.66 140.605L587.655 140.6Z" fill="#FFFF"></path><path d="M737.348 129.525V0.0644531C730.519 2.91937 723.358 4.91405 716.035 6.0001L704.658 7.68294V16.8821L705.546 17.038C712.514 18.2693 715.627 20.0542 715.627 27.377V129.53C715.627 136.633 712.637 138.461 705.497 140.095L704.664 140.289V149.746H748.321V140.294L747.493 140.101C740.342 138.418 737.353 136.579 737.353 129.536L737.348 129.525Z" fill="#FFFF"></path><path d="M851.837 133.622C843.981 132.563 841.584 130.095 841.584 123.073V0.0644531C834.589 2.92475 827.32 5.06997 819.895 6.46248L808.679 8.57006V17.7424L809.567 17.8983C816.534 19.1295 819.647 20.9145 819.647 28.2373V51.8347C817.024 50.5282 813.669 49.5174 809.755 49.1948C794.717 47.9582 780.372 54.6251 769.512 64.4802C758.404 74.5611 752.285 88.1152 752.285 102.643C752.285 134.267 776.593 151.106 794.136 151.106C794.136 151.106 810.62 151.848 822.153 136.036L822.244 139.036V150.38C829.513 147.52 837.073 145.456 844.788 144.224L852.772 142.95V133.74L851.842 133.616L851.837 133.622ZM803.728 135.047C797.045 134.939 790.26 131.407 785.104 125.364C780.818 120.337 775.705 111.223 775.705 96.352C775.705 61.7167 796.598 61.3081 800.97 61.2973C805.292 61.2865 818.373 63.9587 820.325 78.1687L820.416 77.6365L821.809 124.326C817.76 130.514 810.54 135.041 803.733 135.041L803.728 135.047Z" fill="#FFFF"></path><path d="M701.809 49.6946C699.718 49.3129 697.551 48.9204 694.621 48.9204C682.18 48.9204 673.438 56.2701 668.303 71.2113L668.077 50.3882L667.174 50.7753C661.072 53.3775 654.695 55.2916 648.168 56.4744L636.039 58.6787V67.851L636.926 68.007C643.894 69.2382 647.007 71.0232 647.007 78.3459V129.53C647.007 136.632 644.018 138.46 636.878 140.095L636.044 140.288V149.746H679.916V140.245L679.035 140.084C672.346 138.869 668.948 136.869 668.948 129.315L668.653 102.191C668.873 85.1526 676.685 68.0822 694.255 68.0822C697.223 68.0822 699.282 68.3457 701.374 68.9909L702.6 69.3672V49.8344L701.82 49.6946H701.809Z" fill="#FFFF"></path></g><defs><clipPath id="clip0_1848_799"><rect width="852.771" height="167.451" fill="white"></rect></clipPath></defs></svg>