<?xml version="1.0" encoding="utf-8"?>
<!-- Generator: Adobe Illustrator 26.2.1, SVG Export Plug-In . SVG Version: 6.00 Build 0)  -->
<svg version="1.1" id="Layer_1" xmlns="http://www.w3.org/2000/svg" xmlns:xlink="http://www.w3.org/1999/xlink" x="0px" y="0px"
	 viewBox="0 0 3237 1432" style="enable-background:new 0 0 3237 1432;" xml:space="preserve">
<style type="text/css">
	.st0{fill:#FFFFFF;}
</style>
<path d="M1565.3,0c315.9,0,576.7,235.7,616.1,540.9l195.2-403.2l859.6,1060.9L2551.9,1432l-746.4-114.5l79-163.1
	c-93.3,56-202.4,88.1-319.1,88.1c-104.5,0-203-25.8-289.5-71.4l-45.7,210.5l-806.6-41L-0.1,1078.1l185.9-958l758.7,123.1l104.7,32
	C1160.7,109.3,1350.2,0,1565.3,0z"/>
<path class="st0" d="M580.9,596.3c110,0,199,89,199,199c0,110-89,199-199,199s-199-89.2-199-199
	C381.9,685.5,471.1,596.3,580.9,596.3z M1155.8,751.4c33.9,0,71.1,24.9,71.1,77.6c0,1.7-0.3,3.2-0.3,5.2h-105.3
	c4.7,17.1,20,28.7,38.6,28.7c10.6,0,20.5-4.2,26.2-12.6h38.6c-10.4,26.2-24.4,43.5-65.4,43.5s-74.4-29.9-74.4-71.2
	C1084.9,781.3,1116.7,751.4,1155.8,751.4L1155.8,751.4z M1310,751.7c33.9,0,62.3,23.3,68.9,56.4h-35.3c-5.5-14.7-18.3-24-33.6-24
	v-0.1c-20.6,0-37,16.5-37,39.5c0,23,21.7,39.1,37,39.1c15.3,0,28.2-9.2,33.6-24h35.3c-6.6,33.1-29.6,55.3-68.9,55.3
	c-39.3,0-71.4-29.6-71.4-70.9C1238.6,781.6,1276.1,751.7,1310,751.7z M1629.8,751.7c39.9,0,72.2,30.1,72.2,71.2
	s-32.3,70.9-72.2,70.9c-39.9,0-72.2-29.6-72.2-70.9C1557.6,781.6,1589.8,751.7,1629.8,751.7z M1984.7,751.7
	c33.9,0,62.3,23.3,68.9,56.4h-35.3c-5.5-14.7-18.3-24-33.6-24v-0.1c-20.5,0-36.9,16.5-36.9,39.5c0,23,21.6,39.1,36.9,39.1
	c15.3,0,28.2-9.2,33.6-24h35.3c-6.5,33.1-29.6,55.3-68.9,55.3c-39.3,0-71.4-29.6-71.4-70.9C1913.3,781.6,1950.8,751.7,1984.7,751.7z
	 M2541.8,751.4c33.6,0,58.6,20.7,61.5,49.9h-31.7c-2.2-14.2-14.3-23.5-30.4-23.5c-9.6,0-18.3,2.5-18.3,12.6
	c0,10.1,14.4,13.9,31.4,18.3v-0.1c23.2,6.1,51.2,16,51.2,42.2c0,26.2-21.3,43-56.1,43c-34.8,0-60.5-20.9-63.5-50.1h31.7
	c1.8,14.2,19.1,23.8,31.7,23.8c12.6,0,21.7-3.5,21.7-13.4c0-9.9-14.3-13.4-30.9-17.8c-23.2-6-51.2-16.8-51.2-43
	C2489,767,2508.2,751.4,2541.8,751.4z M1512,779.2c8.2-17.8,23.2-29.6,44.3-27.1v33.1c-27.9-4.4-44.3,15.1-44.3,33.6v72.2h-34.8
	V754.5h34.8V779.2z M1793,751.4c32.6,0,50.9,23.6,50.9,55.6v84h-34.8v-81.3c0-17.8-12.3-29.9-28.4-29.9c-16.1,0-28.4,12.6-28.4,28.4
	v82.6h-34.8V754.4h34.8v17C1760.4,759.1,1775.4,751.4,1793,751.4z M2350.1,779.2c8.2-17.8,23.2-29.6,44.3-27.1v33.1
	c-27.9-4.4-44.3,15.1-44.3,33.6v72.2h-34.8V754.5h34.8V779.2z M2306.9,891.1h-40l-19.5-40.8h-79.8l-18.8,40.8h-38.9l98.5-199.8
	L2306.9,891.1z M1069.6,891.1h-34.8V699.5l34.8-10.9V891.1z M1424.4,754.4h39.7V784h-39.7v62.1c0,9.1,4.9,14,15.6,14h24v30.9h-33.9
	c-25.2,0-40-14.3-40-35.3V725.4l34.1-10.9l0.1-0.1V754.4z M2440.5,754.4h39.7V784h-39.7v62.1c0,9.1,4.9,14,15.6,14h24v30.9h-33.9
	c-25.2,0-40-14.3-40-35.3V725.4l34.1-10.9l0.1-0.1V754.4z M1019.1,733.1H918.3V778h81.5v33.1h-81.5v46.8h100.7v33.1H880V699.5h139
	V733.1z M1898,891.1h-34.8V754.5h34.8V891.1z M1629.8,783.8c-21,0-37.8,16.5-37.8,39.5c0,23,16.7,39.1,37.8,39.1
	c21.2,0,37.8-15.5,37.8-39.1C1667.5,799.6,1650.8,783.8,1629.8,783.8z M569.3,827.1h-78.1l17.3-27.6h52.8l17.3-27.6H468l-17.3,27.6
	h25.4l-34.5,55.1h143.2l53.6-85.9l19.2,30.8h-15.9l-17.3,27.6h50.3l17.3,27.5l-0.1,0.1h32.6l-86.2-138L569.3,827.1z M2181.4,821
	h52.2l-26.5-55.9L2181.4,821z M1155.8,781.8c-16.1,0-29.5,10.7-34.1,27.4h67.5C1186.1,793,1171.9,781.8,1155.8,781.8z M485,744.4
	h113.5l17.3-27.6H502.2L485,744.4z M1880.5,692.6c12.3,0,22.5,10.1,22.5,22.5c0,12.3-10.4,22.5-22.5,22.5
	c-12.1,0-22.2-10.1-22.2-22.5C1858.3,702.7,1868.4,692.6,1880.5,692.6z"/>
</svg>
