<svg width="2225" height="399" viewBox="0 0 2225 399" fill="none" xmlns="http://www.w3.org/2000/svg">
<path fill-rule="evenodd" clip-rule="evenodd" d="M0.625 199.988C0.625 90.1409 89.7992 0.980209 199.633 0.980209C309.597 0.980209 398.64 90.0099 398.64 199.988C398.64 309.966 309.597 398.995 199.633 398.995C89.6684 398.995 0.625 309.835 0.625 199.988ZM234.413 121.432H120.919L103.659 149.058H217.154L234.413 121.432ZM293.383 231.803L310.643 259.297L310.512 259.428H343.07L256.903 121.432L187.996 231.803H109.935L127.195 204.177H180.019L197.279 176.552H86.6611L69.4016 204.177H94.7679L60.2488 259.297H203.424L257.034 173.41L276.254 204.177H260.302L243.043 231.803H293.383ZM1370.89 176.567C1379.07 164.227 1394.13 156.563 1411.66 156.563C1444.25 156.563 1462.55 180.205 1462.55 212.16V296.206H1427.76V214.888C1427.76 197.092 1415.43 185.011 1399.33 185.011C1383.23 185.011 1370.89 197.611 1370.89 213.459V296.076H1336.1V159.55H1370.89V176.567ZM1130.72 184.232V159.551H1095.92V296.076H1130.72V223.851C1130.72 205.275 1147.08 185.79 1174.99 190.207V157.082C1153.96 154.614 1138.9 166.435 1130.72 184.232ZM688.257 296.206H653.463V104.603L688.257 93.6909V296.206ZM1248.46 156.823C1208.48 156.823 1176.28 186.7 1176.28 228.008C1176.28 269.316 1208.61 298.934 1248.46 298.934C1288.32 298.934 1320.65 269.057 1320.65 228.008C1320.65 186.96 1288.32 156.823 1248.46 156.823ZM1248.46 267.498C1227.43 267.498 1210.68 251.39 1210.68 228.398C1210.68 205.405 1227.43 188.908 1248.46 188.908C1269.5 188.908 1286.24 204.756 1286.24 228.398C1286.24 252.04 1269.62 267.498 1248.46 267.498ZM703.574 227.749C703.574 186.441 735.382 156.564 774.46 156.564V156.694C808.345 156.694 845.606 181.505 845.606 234.114C845.606 234.929 845.546 235.713 845.484 236.525C845.416 237.397 845.347 238.301 845.347 239.31H740.056C744.729 256.457 760.049 268.018 778.615 268.018C789.261 268.018 799.128 263.862 804.84 255.418H843.399C833.013 281.658 818.991 298.935 777.966 298.935C736.94 298.935 703.574 269.058 703.574 227.749ZM774.46 186.961C758.361 186.961 744.989 197.612 740.315 214.37H807.826C804.84 198.132 790.559 186.961 774.46 186.961ZM1042.94 119.671L1008.79 130.582V260.872C1008.79 281.916 1023.59 296.205 1048.78 296.205H1082.67V265.289H1058.65C1048 265.289 1043.07 260.353 1043.07 251.26V189.167H1082.8V159.55H1043.07V119.541L1042.94 119.671ZM962.316 213.199C956.863 198.521 944.01 189.168 928.69 189.168V189.038C908.048 189.038 891.689 205.535 891.689 228.528C891.689 251.52 913.371 267.628 928.69 267.628C944.01 267.628 956.863 258.405 962.316 243.596H997.63C991.008 276.721 968.029 298.934 928.69 298.934C889.352 298.934 857.285 269.316 857.285 228.008C857.285 186.7 894.805 156.823 928.69 156.823C962.576 156.823 991.008 180.075 997.63 213.199H962.316ZM1968.76 184.232V159.551H1933.97V296.076H1968.76V223.851C1968.76 205.275 1985.12 185.79 2013.03 190.207V157.082C1992 154.614 1976.94 166.435 1968.76 184.232ZM637.75 296.205H498.704V104.602H637.75V138.246H537.003V183.192H618.536V216.316H537.003V263.08H637.75V296.205ZM1728.69 296.206H1767.51L1786.34 255.417H1866.18L1885.66 296.206H1925.64L1827.1 96.4193L1728.56 296.206H1728.69ZM1800.1 226.19L1825.81 170.333L1852.29 226.19H1800.1ZM2141.69 195.533C2141.69 205.665 2156.1 209.432 2173.11 213.849V213.719C2196.35 219.824 2224.26 229.697 2224.26 255.937C2224.26 282.176 2202.97 298.934 2168.18 298.934C2133.38 298.934 2107.68 278.02 2104.69 248.792H2136.37C2138.19 262.951 2155.45 272.564 2168.05 272.564C2180.64 272.564 2189.73 269.056 2189.73 259.184C2189.73 249.585 2176.23 246.004 2160.2 241.753L2158.83 241.388C2135.59 235.412 2107.68 224.631 2107.68 198.391C2107.68 172.151 2126.89 156.563 2160.52 156.563C2194.14 156.563 2219.07 177.217 2222.05 206.444H2190.38C2188.17 192.285 2176.1 182.933 2160 182.933C2150.39 182.933 2141.69 185.401 2141.69 195.533ZM2059.11 119.671L2024.96 130.582V260.872C2024.96 281.916 2039.76 296.205 2064.95 296.205H2098.84V265.289H2074.82C2064.17 265.289 2059.24 260.353 2059.24 251.26V189.167H2098.97V159.55H2059.24V119.541L2059.11 119.671ZM1481.89 159.679H1516.68V296.204H1481.89V159.679ZM1499.16 97.7178C1487.09 97.7178 1476.96 107.85 1476.96 120.191C1476.96 132.531 1487.09 142.663 1499.16 142.663C1511.24 142.663 1521.62 132.531 1521.62 120.191C1521.62 107.85 1511.5 97.7178 1499.16 97.7178ZM1637.04 213.199C1631.59 198.521 1618.74 189.168 1603.42 189.168V189.038C1582.9 189.038 1566.55 205.535 1566.55 228.528C1566.55 251.52 1588.1 267.628 1603.42 267.628C1618.74 267.628 1631.59 258.405 1637.04 243.596H1672.36C1665.87 276.721 1642.76 298.934 1603.42 298.934C1564.08 298.934 1532.01 269.316 1532.01 228.008C1532.01 186.7 1569.53 156.823 1603.42 156.823C1637.3 156.823 1665.74 180.075 1672.36 213.199H1637.04Z" fill="white"/>
</svg>
