<svg viewBox="0 0 319.8 297.8" xmlns="http://www.w3.org/2000/svg"><path d="m182.6 184.7c15.9-10 42.8-26.7 56.6-36.6 15.9-11.3 27.3-20.7 20.2-33.1-6.1-10.5-19.1-8.3-41.3-1.3-20.4 6.5-47.4 16-64 22.1-2 .7-3.4-2-1.6-3.2 20-13.5 42.9-29.9 54.9-40.5 7.7-6.8 8.7-15.1 4.6-20.2-3.5-4.3-8.1-8.7-29.9-1.6-15.7 5.2-35.7 13.6-53.7 20.9-1.9.8-3.4-1.7-1.8-3 4.3-3.6 12.7-10.1 17.3-14.9 7.3-7.7 7.4-15.2 3.7-20.1-1.9-2.6-6.2-6.9-18.3-5.9-10 .8-21.6 2.9-37.2 7.2-11.4 3.2-9.8 20.9 6.4 18 4.1-.7 10-1.9 14.3-2.8 1.8-.4 3 2 1.5 3.1-10.8 8.6-23.6 18.9-29.5 24.2-7.7 6.8-10.8 14.1-5.7 20.9 5.3 6.9 15.7 4.8 28.2 1.2 7.7-2.2 19.7-6.3 28.3-9.2 2-.7 3.3 2.1 1.5 3.2-15.9 10-42.8 26.7-56.6 36.6-15.9 11.3-27.3 20.7-20.2 33.1 6.1 10.5 19.1 8.3 41.3 1.3 20.4-6.5 47.4-16 64-22.1 2-.7 3.4 2 1.6 3.2-20 13.5-42.9 29.9-54.9 40.5-7.7 6.8-8.7 15.1-4.6 20.2 3.5 4.3 8.1 8.7 29.9 1.6 15.7-5.2 35.7-13.6 53.7-20.9 1.9-.8 3.4 1.7 1.8 3-4.3 3.6-12.7 10.1-17.3 14.9-7.3 7.7-7.4 15.2-3.7 20.1 1.9 2.6 6.2 6.9 18.3 5.9 10-.8 21.6-2.9 37.2-7.2 11.4-3.2 9.8-20.9-6.4-18-4.1.7-10 1.9-14.3 2.8-1.8.4-3-2-1.5-3.1 10.8-8.5 23.5-18.8 29.4-24.1 7.7-6.8 10.8-14.1 5.7-20.9-5.3-6.9-15.7-4.8-28.2-1.2-7.7 2.2-19.7 6.3-28.3 9.2-1.8.6-3.2-2.2-1.4-3.3z" fill="#ae1c59"/></svg>