<?xml version="1.0" encoding="UTF-8"?>
<!DOCTYPE svg PUBLIC "-//W3C//DTD SVG 1.1//EN" "http://www.w3.org/Graphics/SVG/1.1/DTD/svg11.dtd">
<svg xmlns="http://www.w3.org/2000/svg" version="1.1" width="3840px" height="2160px" style="shape-rendering:geometricPrecision; text-rendering:geometricPrecision; image-rendering:optimizeQuality; fill-rule:evenodd; clip-rule:evenodd" xmlns:xlink="http://www.w3.org/1999/xlink">
<g><path style="opacity:0.997" fill="#000000" d="M 2917.5,626.5 C 3216.67,625.5 3516,625.167 3815.5,625.5C 3815.67,925.834 3815.5,1226.17 3815,1526.5C 3732.61,1444.45 3650.61,1362.11 3569,1279.5C 3568.83,1144.17 3568.33,1008.83 3567.5,873.5C 3434.04,873.711 3300.54,874.044 3167,874.5C 3164.63,873.711 3162.47,872.544 3160.5,871C 3079.66,789.326 2998.66,707.826 2917.5,626.5 Z"/></g>
<g><path style="opacity:0.994" fill="#000000" d="M 334.5,685.5 C 410.503,685.167 486.503,685.5 562.5,686.5C 677.725,947.284 793.225,1207.95 909,1468.5C 909.991,1470.45 910.325,1472.45 910,1474.5C 839.904,1473.67 769.737,1473.17 699.5,1473C 683.267,1435.56 667.267,1397.06 651.5,1357.5C 645.938,1344.32 640.271,1331.16 634.5,1318C 517.832,1317.17 401.165,1317.33 284.5,1318.5C 265.167,1369.83 245.833,1421.17 226.5,1472.5C 157.17,1473.5 87.8365,1473.83 18.5,1473.5C 123.276,1210.61 228.609,947.947 334.5,685.5 Z M 450.5,876.5 C 482.658,952.517 514.658,1028.85 546.5,1105.5C 554.595,1126.24 563.262,1147.07 572.5,1168C 572.167,1168.33 571.833,1168.67 571.5,1169C 573.634,1171.89 575.301,1175.06 576.5,1178.5C 496.836,1179.5 417.169,1179.83 337.5,1179.5C 374.97,1078.42 412.637,977.423 450.5,876.5 Z"/></g>
<g><path style="opacity:0.993" fill="#000000" d="M 1000.5,685.5 C 1057.5,685.333 1114.5,685.5 1171.5,686C 1255.33,783.167 1339.17,880.333 1423,977.5C 1506.83,880.333 1590.67,783.167 1674.5,686C 1731.83,685.5 1789.17,685.333 1846.5,685.5C 1846.5,948.167 1846.5,1210.83 1846.5,1473.5C 1780.5,1473.67 1714.5,1473.5 1648.5,1473C 1649.67,1309.9 1649.83,1146.74 1649,983.5C 1579.19,1065.61 1509.02,1147.45 1438.5,1229C 1428.5,1229.67 1418.5,1229.67 1408.5,1229C 1407.69,1228.69 1407.03,1228.19 1406.5,1227.5C 1336.52,1146.3 1267.02,1065.3 1198,984.5C 1197.5,1147.5 1197.33,1310.5 1197.5,1473.5C 1131.83,1473.5 1066.17,1473.5 1000.5,1473.5C 1000.5,1210.83 1000.5,948.167 1000.5,685.5 Z"/></g>
<g><path style="opacity:0.995" fill="#000000" d="M 1994.5,685.5 C 2115.5,685.333 2236.5,685.5 2357.5,686C 2436.42,686.713 2511.08,704.713 2581.5,740C 2689.32,801.008 2752.48,893.175 2771,1016.5C 2782.08,1095.45 2773.41,1172.12 2745,1246.5C 2712.99,1321.82 2661.15,1378.32 2589.5,1416C 2552.64,1434.63 2515.64,1448.13 2478.5,1456.5C 2466.73,1459.52 2455.06,1461.85 2443.5,1463.5C 2429.93,1465.7 2416.43,1468.03 2403,1470.5C 2397.92,1470.13 2392.92,1470.13 2388,1470.5C 2385.55,1470.86 2383.22,1471.53 2381,1472.5C 2378.09,1471.71 2375.26,1471.38 2372.5,1471.5C 2359.96,1472.41 2347.46,1473.41 2335,1474.5C 2221.24,1473.67 2107.4,1473.17 1993.5,1473C 1994.5,1210.57 1994.83,948.07 1994.5,685.5 Z M 2450.5,858.5 C 2495.56,879.724 2528.39,913.058 2549,958.5C 2570.02,1008.61 2577.36,1061.28 2571,1116.5C 2565.94,1167.73 2547.28,1213.06 2515,1252.5C 2477.31,1292.27 2431.14,1316.1 2376.5,1324C 2363.23,1325.99 2349.9,1327.33 2336.5,1328C 2287.83,1328.5 2239.17,1328.67 2190.5,1328.5C 2190.5,1162.5 2190.5,996.5 2190.5,830.5C 2232.17,830.333 2273.83,830.5 2315.5,831C 2325.19,832.367 2334.85,832.701 2344.5,832C 2348.5,832.333 2352.5,832.667 2356.5,833C 2358.29,834.461 2360.29,834.628 2362.5,833.5C 2367.48,833.994 2372.31,834.994 2377,836.5C 2402.18,839.485 2426.68,846.818 2450.5,858.5 Z"/></g>
<g><path style="opacity:0.995" fill="#000000" d="M 3162.5,922.5 C 3164.5,1040.83 3165.16,1159.5 3164.5,1278.5C 3282.84,1278.17 3401.17,1278.5 3519.5,1279.5C 3435.35,1364.15 3351.01,1448.65 3266.5,1533C 3147.5,1533.5 3028.5,1533.67 2909.5,1533.5C 2909.33,1414.5 2909.5,1295.5 2910,1176.5C 2994.01,1091.66 3078.17,1006.99 3162.5,922.5 Z"/></g>
</svg>
